<svg width="12" height="14" viewBox="0 0 12 14" fill="none" xmlns="http://www.w3.org/2000/svg">
<path fill-rule="evenodd" clip-rule="evenodd" d="M5.98449 13.9995C5.78558 13.9995 5.59481 13.9205 5.45416 13.7799C5.31351 13.6392 5.23449 13.4484 5.23449 13.2495V2.61152L1.27449 6.76952C1.13507 6.90592 0.948007 6.98264 0.752968 6.98341C0.557929 6.98418 0.370261 6.90894 0.229769 6.77365C0.0892777 6.63836 0.00701442 6.45367 0.00042818 6.25874C-0.00615806 6.06381 0.0634511 5.87398 0.19449 5.72952L5.44449 0.229519C5.51445 0.156933 5.59833 0.0991962 5.69111 0.0597606C5.7839 0.020325 5.88368 0 5.98449 0C6.08531 0 6.18509 0.020325 6.27787 0.0597606C6.37065 0.0991962 6.45453 0.156933 6.52449 0.229519L11.7745 5.72952C11.8462 5.79971 11.9032 5.88359 11.9419 5.97619C11.9806 6.06879 12.0004 6.16822 12 6.26859C11.9996 6.36897 11.9791 6.46824 11.9396 6.56053C11.9001 6.65282 11.8425 6.73624 11.7702 6.80587C11.6979 6.87549 11.6124 6.92989 11.5187 6.96585C11.425 7.00181 11.325 7.01859 11.2247 7.0152C11.1244 7.01181 11.0257 6.98832 10.9347 6.94612C10.8436 6.90392 10.7619 6.84386 10.6945 6.76952L6.73449 2.61152V13.2495C6.73449 13.4484 6.65547 13.6392 6.51482 13.7799C6.37417 13.9205 6.1834 13.9995 5.98449 13.9995Z" fill="#22C55E"/>
</svg>
