<svg width="35" height="21" viewBox="0 0 35 21" fill="none" xmlns="http://www.w3.org/2000/svg">
<path d="M17.02 0C12.482 0 9.644 2.286 8.51 6.857C10.212 4.572 12.197 3.714 14.467 4.287C15.763 4.612 16.687 5.558 17.712 6.605C19.38 8.311 21.312 10.286 25.531 10.286C30.07 10.286 32.907 8 34.041 3.429C32.34 5.715 30.354 6.572 28.084 6C26.79 5.675 25.864 4.728 24.839 3.68C23.171 1.975 21.239 0 17.02 0ZM8.51 10.286C3.971 10.286 1.134 12.572 0 17.143C1.701 14.857 3.687 14 5.957 14.572C7.251 14.897 8.177 15.844 9.202 16.892C10.87 18.597 12.802 20.572 17.02 20.572C21.56 20.572 24.397 18.286 25.531 13.715C23.829 16.001 21.843 16.858 19.574 16.286C18.279 15.96 17.354 15.014 16.329 13.966C14.66 12.261 12.73 10.286 8.51 10.286Z" fill="#4338CA"/>
</svg>
